# xmcd
#
# Track frame offsets: 
#        150
#        19950
#        33300
#        47475
#        68625
#        80850
#        89175
#        112950
#        126075
#        146700
#        158850
#        171900
#        182850
#        197503
#        212983
#        225791
#        252125
#        266972
#        284859
#
# Disc length: 3995 seconds
#
# Revision: 1
# Processed by: cddbd v1.5.2PL0 Copyright (c) Steve Scherf et al.
# Submitted via: ExactAudioCopy v0.95a2
#
DISCID=1e0f9913
DTITLE=Various Artist - Niepublikowane
DYEAR=2006
DGENRE=Blues Rock, Boogie, Neo Swing, Rock'n'Roll
TTITLE0=Apokalipsa - Ta Duda
TTITLE1=Apokalipsa - Daj mi znaæ
TTITLE2=Apokalipsa - Hej ucieka czas
TTITLE3=Apokalipsa - Bieg ku promieniom s³oñca
TTITLE4=Irek Dudek - Z piek³a rodem
TTITLE5=Irek Dudek - Przebierka
TTITLE6=Irek Dudek - Flute Tune
TTITLE7=Shakin' Dudi - Jeszcze zobaczysz
TTITLE8=Shakin' Dudi - Daj mi na kredut
TTITLE9=Shakin' Dudi - Piej, piej, piej
TTITLE10=Shakin' Dudi - Melina
TTITLE11=Shakin' Dudi - TV Blues
TTITLE12=Irek Dudek - Bójcie siê
TTITLE13=Irek Dudek - Walkin' in My Mind
TTITLE14=Irek Dudek - Koñczy siê tlen
TTITLE15=Irek Dudek - Ojciec taki by³
TTITLE16=Irek Dudek - Jeszcze zobaczysz
TTITLE17=Irek Dudek - Improwizacja (Pociag)
TTITLE18=Irek Dudek - Kraty
EXTD=
EXTT0=
EXTT1=
EXTT2=
EXTT3=
EXTT4=
EXTT5=
EXTT6=
EXTT7=
EXTT8=
EXTT9=
EXTT10=
EXTT11=
EXTT12=
EXTT13=
EXTT14=
EXTT15=
EXTT16=
EXTT17=
EXTT18=
PLAYORDER=
